<?xml version="1.0" encoding="UTF-8" standalone="no"?>
<!-- Created with Inkscape (http://www.inkscape.org/) -->

<svg
   width="34in"
   height="8in"
   viewBox="0 0 863.60001 203.2"
   version="1.1"
   id="svg520"
   inkscape:version="1.2.2 (732a01da63, 2022-12-09)"
   sodipodi:docname="full_box_screw.svg"
   xml:space="preserve"
   xmlns:inkscape="http://www.inkscape.org/namespaces/inkscape"
   xmlns:sodipodi="http://sodipodi.sourceforge.net/DTD/sodipodi-0.dtd"
   xmlns="http://www.w3.org/2000/svg"
   xmlns:svg="http://www.w3.org/2000/svg"><sodipodi:namedview
     id="namedview522"
     pagecolor="#ffffff"
     bordercolor="#000000"
     borderopacity="0.25"
     inkscape:showpageshadow="2"
     inkscape:pageopacity="0.0"
     inkscape:pagecheckerboard="0"
     inkscape:deskcolor="#d1d1d1"
     inkscape:document-units="in"
     showgrid="false"
     inkscape:zoom="0.97764852"
     inkscape:cx="539.55996"
     inkscape:cy="424.48793"
     inkscape:window-width="1920"
     inkscape:window-height="974"
     inkscape:window-x="-11"
     inkscape:window-y="-11"
     inkscape:window-maximized="1"
     inkscape:current-layer="svg520"
     showguides="true"><inkscape:page
       x="0"
       y="0"
       width="863.60004"
       height="203.2"
       id="page283" /><inkscape:page
       x="873.60004"
       y="0"
       width="863.60004"
       height="203.2"
       id="page285" /><inkscape:page
       x="1747.2001"
       y="0"
       width="40.702454"
       height="25.488195"
       id="page291" /></sodipodi:namedview><defs
     id="defs517"><clipPath
       clipPathUnits="userSpaceOnUse"
       id="clipPath257"><path
         d="M 0,576 H 2448 V 0 H 0 Z"
         id="path255" /></clipPath><clipPath
       clipPathUnits="userSpaceOnUse"
       id="clipPath273"><path
         d="M 0,72.25 H 115.377 V 0 H 0 Z"
         id="path271" /></clipPath><clipPath
       clipPathUnits="userSpaceOnUse"
       id="clipPath16"><path
         d="M 0,576 H 2448 V 0 H 0 Z"
         id="path14" /></clipPath></defs><g
     inkscape:label="Layer 1"
     inkscape:groupmode="layer"
     id="layer1"><path
       d="m 506.72966,1.2700006 h -35.6616 v 2.9972 h -27.7368 v -2.9972 h -27.71141 -7.9502 V 32.283396 h 2.9972 v 27.7368 h -2.9972 v 27.7114 h 2.9972 v 27.736794 h -2.9972 v 27.71141 h 2.9972 v 27.73679 h -2.9972 V 201.93 h 35.66161 v -2.99721 h 27.7368 V 201.93 h 27.7114 7.9502 v -31.01341 h -2.9972 v -27.7368 h 2.9972 v -27.7114 h -2.9972 V 87.731596 h 2.9972 v -27.7114 h -2.9972 v -27.7368 h 2.9972 z"
       id="front_outsideCutPath"
       stroke="#FF0000"
       stroke-width="0.001"
       style="font-size:12px;fill:none;fill-rule:evenodd;stroke:#fe0000;stroke-width:0.127;stroke-linecap:round;stroke-dasharray:none;stroke-opacity:1"
       vector-effect="non-scaling-stroke" /><path
       d="m 610.86888,201.93 h 35.6616 v -2.9972 h 27.7368 v 2.9972 h 27.7114 7.9502 v -31.0134 h -2.9972 v -27.7368 h 2.9972 v -27.7114 h -2.9972 V 87.731601 h 2.9972 v -27.7114 h -2.9972 v -27.7368 h 2.9972 V 1.2700006 h -35.6616 v 2.9972 h -27.7368 v -2.9972 h -27.7114 -7.9502 V 32.283401 h 2.9972 v 27.7368 h -2.9972 v 27.7114 h 2.9972 V 115.4684 h -2.9972 v 27.7114 h 2.9972 v 27.7368 h -2.9972 z"
       id="back_outsideCutPath"
       stroke="#FF0000"
       stroke-width="0.001"
       style="font-size:12px;fill:none;fill-rule:evenodd;stroke:#fe0000;stroke-width:0.127;stroke-linecap:round;stroke-dasharray:none;stroke-opacity:1"
       vector-effect="non-scaling-stroke" /><path
       d="m 608.26624,4.2672006 h -35.6616 v -2.9972 h -27.7368 v 2.9972 h -27.7114 -7.9502 V 32.283401 h 2.9972 v 27.7368 h -2.9972 v 27.7114 h 2.9972 V 115.4684 h -2.9972 v 27.7114 h 2.9972 v 27.7368 h -2.9972 v 28.0162 h 35.6616 v 2.9972 h 27.7368 v -2.9972 h 27.7114 7.9502 v -28.0162 h -2.9972 v -27.7368 h 2.9972 v -27.7114 h -2.9972 V 87.731601 h 2.9972 v -27.7114 h -2.9972 V 32.2834 h 2.9972 z"
       id="left_outsideCutPath"
       stroke="#FF0000"
       stroke-width="0.001"
       style="font-size:12px;fill:none;fill-rule:evenodd;stroke:#fe0000;stroke-width:0.127;stroke-linecap:round;stroke-dasharray:none;stroke-opacity:1"
       vector-effect="non-scaling-stroke" /><path
       d="m 811.52845,4.2672006 h -35.6616 v -2.9972 h -27.7368 v 2.9972 h -27.7114 -7.9502 V 32.2834 h 2.9972 v 27.7368 h -2.9972 v 27.7114 h 2.9972 v 27.7368 h -2.9972 v 27.7114 h 2.9972 v 27.7368 h -2.9972 v 28.0162 h 35.6616 v 2.9972 h 27.7368 v -2.9972 h 27.7114 7.9502 v -28.0162 h -2.9972 v -27.7368 h 2.9972 v -27.7114 h -2.9972 V 87.7316 h 2.9972 V 60.0202 h -2.9972 V 32.2834 h 2.9972 z"
       id="right_outsideCutPath-1"
       stroke="#FF0000"
       stroke-width="0.001"
       style="font-size:12px;fill:none;fill-rule:evenodd;stroke:#fe0000;stroke-width:0.12700001;stroke-linecap:round;stroke-dasharray:none;stroke-opacity:1"
       vector-effect="non-scaling-stroke" /><path
       d="M 207.46787,4.2672006 V 32.283401 h -2.9972 v 27.7368 h 2.9972 v 27.7114 h -2.9972 V 115.4684 h 2.9972 v 27.7114 h -2.9972 v 27.7368 h 2.9972 v 28.0162 h 28.0162 v 2.9972 h 27.7368 v -2.9972 h 27.7114 v 2.9972 h 27.7368 v -2.9972 h 27.7114 v 2.9972 h 27.7368 v -2.9972 h 28.0162 v -28.0162 h 2.9972 v -27.7368 h -2.9972 v -27.7114 h 2.9972 V 87.731601 h -2.9972 v -27.7114 h 2.9972 v -27.7368 h -2.9972 V 4.2672006 h -28.0162 v -2.9972 h -27.7368 v 2.9972 h -27.7114 v -2.9972 h -27.7368 v 2.9972 h -27.7114 v -2.9972 h -27.7368 v 2.9972 z"
       id="bottom_outsideCutPath"
       stroke="#FF0000"
       stroke-width="0.001"
       style="font-size:12px;fill:none;fill-rule:evenodd;stroke:#fe0000;stroke-width:0.127;stroke-linecap:round;stroke-dasharray:none;stroke-opacity:1"
       vector-effect="non-scaling-stroke" /><path
       d="M 4.2672003,4.2672006 V 32.283402 h -2.9972 v 27.7368 h 2.9972 v 27.7114 h -2.9972 V 115.4684 h 2.9972 v 27.7114 h -2.9972 v 27.7368 h 2.9972 v 28.0162 H 32.2834 v 2.9972 h 27.7368 v -2.9972 h 27.7114 v 2.9972 h 27.7368 v -2.9972 h 27.7114 v 2.9972 h 27.7368 v -2.9972 h 28.0162 v -28.0162 h 2.9972 v -27.7368 h -2.9972 V 115.4684 H 201.93 V 87.731602 h -2.9972 v -27.7114 h 2.9972 v -27.7368 h -2.9972 V 4.2672006 h -28.0162 v -2.9972 h -27.7368 v 2.9972 h -27.7114 v -2.9972 H 87.7316 v 2.9972 H 60.0202 v -2.9972 H 32.2834 v 2.9972 z"
       id="top_outsideCutPath"
       stroke="#FF0000"
       stroke-width="0.001"
       style="font-size:12px;fill:none;fill-rule:evenodd;stroke:#fe0000;stroke-width:0.12700001;stroke-linecap:round;stroke-dasharray:none;stroke-opacity:1"
       vector-effect="non-scaling-stroke" /><rect
       style="fill:#ed0000;fill-opacity:0;stroke:#fe0000;stroke-width:0.0254;stroke-dasharray:none;stroke-opacity:1"
       id="rect2326"
       width="8.4201031"
       height="12.278145"
       x="479.44833"
       y="95.459526" /><path
       style="fill:#ed0000;fill-opacity:0;stroke:#fe0000;stroke-width:0.0254;stroke-dasharray:none;stroke-opacity:1"
       d="M 0,0 V 203.2"
       id="path2404" /><ellipse
       style="fill:none;fill-opacity:1;stroke:#ff0000;stroke-width:0.0254;stroke-linejoin:round;stroke-miterlimit:1;stroke-dasharray:none;stroke-opacity:1"
       id="path13666"
       cx="19.548613"
       cy="186.33215"
       rx="3.9070871"
       ry="3.9070873" /><ellipse
       style="fill:none;fill-opacity:1;stroke:#ff0000;stroke-width:0.0254;stroke-linejoin:round;stroke-miterlimit:1;stroke-dasharray:none;stroke-opacity:1"
       id="path13666-4"
       cx="183.72038"
       cy="186.33215"
       rx="3.8386219"
       ry="3.9076257" /><ellipse
       style="fill:none;fill-opacity:1;stroke:#ff0000;stroke-width:0.0254;stroke-linejoin:round;stroke-miterlimit:1;stroke-dasharray:none;stroke-opacity:1"
       id="path13666-5"
       cx="19.548613"
       cy="16.867851"
       rx="3.9070871"
       ry="3.9070873" /><ellipse
       style="fill:none;fill-opacity:1;stroke:#ff0000;stroke-width:0.0254;stroke-linejoin:round;stroke-miterlimit:1;stroke-dasharray:none;stroke-opacity:1"
       id="path13666-5-9"
       cx="183.78938"
       cy="16.867851"
       rx="3.9070871"
       ry="3.9070873" /><text
       xml:space="preserve"
       style="font-style:normal;font-variant:normal;font-weight:normal;font-stretch:normal;font-size:28.2222px;font-family:Stencil;-inkscape-font-specification:Stencil;fill:none;fill-opacity:1;stroke:#000000;stroke-width:0.0254;stroke-linejoin:miter;stroke-miterlimit:1;stroke-dasharray:none;stroke-opacity:1"
       x="-169.89296"
       y="567.98657"
       id="text15250"
       transform="rotate(-90)"><tspan
         sodipodi:role="line"
         id="tspan15248"
         style="font-style:normal;font-variant:normal;font-weight:normal;font-stretch:normal;font-size:28.2222px;font-family:Stencil;-inkscape-font-specification:Stencil;fill:none;fill-opacity:1;stroke:#000000;stroke-width:0.0254;stroke-opacity:1;stroke-dasharray:none"
         x="-169.89296"
         y="567.98657">PLAYER 1</tspan></text><text
       xml:space="preserve"
       style="font-style:normal;font-variant:normal;font-weight:normal;font-stretch:normal;font-size:28.2222px;font-family:Stencil;-inkscape-font-specification:Stencil;fill:none;fill-opacity:1;stroke:#000000;stroke-width:0.0254;stroke-linejoin:miter;stroke-miterlimit:1;stroke-dasharray:none;stroke-opacity:1"
       x="-169.89296"
       y="771.48358"
       id="text15250-9"
       transform="rotate(-90)"><tspan
         sodipodi:role="line"
         id="tspan15248-8"
         style="font-style:normal;font-variant:normal;font-weight:normal;font-stretch:normal;font-size:28.2222px;font-family:Stencil;-inkscape-font-specification:Stencil;fill:none;fill-opacity:1;stroke:#000000;stroke-width:0.0254;stroke-opacity:1;stroke-dasharray:none"
         x="-169.89296"
         y="771.48358">PLAYER 2</tspan></text><text
       xml:space="preserve"
       style="font-style:normal;font-variant:normal;font-weight:normal;font-stretch:normal;font-size:28.2222px;font-family:Stencil;-inkscape-font-specification:Stencil;fill:none;fill-opacity:1;stroke:#000000;stroke-width:0.0254;stroke-linejoin:miter;stroke-miterlimit:1;stroke-dasharray:none;stroke-opacity:1"
       x="-144.59476"
       y="669.77246"
       id="text15250-9-3"
       transform="rotate(-90)"><tspan
         sodipodi:role="line"
         id="tspan15248-8-3"
         style="font-style:normal;font-variant:normal;font-weight:normal;font-stretch:normal;font-size:28.2222px;font-family:Stencil;-inkscape-font-specification:Stencil;fill:none;fill-opacity:1;stroke:#000000;stroke-width:0.0254;stroke-opacity:1;stroke-dasharray:none"
         x="-144.59476"
         y="669.77246">reset</tspan></text><ellipse
       style="fill:none;fill-opacity:1;stroke:#ff0000;stroke-width:0.0254;stroke-linejoin:miter;stroke-miterlimit:1;stroke-dasharray:none;stroke-opacity:1"
       id="path23868"
       cx="558.76752"
       cy="25.488195"
       rx="6.318676"
       ry="6.3186755" /><ellipse
       style="fill:none;fill-opacity:1;stroke:#ff0000;stroke-width:0.0254;stroke-linejoin:miter;stroke-miterlimit:1;stroke-dasharray:none;stroke-opacity:1"
       id="path23868-0"
       cx="660.36737"
       cy="25.488195"
       rx="6.318676"
       ry="6.3186755" /><ellipse
       style="fill:none;fill-opacity:1;stroke:#ff0000;stroke-width:0.0254;stroke-linejoin:miter;stroke-miterlimit:1;stroke-dasharray:none;stroke-opacity:1"
       id="path23868-0-5"
       cx="762.03021"
       cy="25.488195"
       rx="6.318676"
       ry="6.3186755" /></g><rect
     style="fill:none;fill-opacity:1;stroke:#ff0000;stroke-width:0.0254;stroke-linejoin:round;stroke-miterlimit:1;stroke-dasharray:none;stroke-opacity:1"
     id="rect2562"
     width="55.880001"
     height="31.75"
     x="71.789536"
     y="153.59811"
     ry="3.2532218" /><rect
     style="fill:none;fill-opacity:1;stroke:#ff0000;stroke-width:0.0238204;stroke-linejoin:round;stroke-miterlimit:1;stroke-dasharray:none;stroke-opacity:1"
     id="rect2562-6"
     width="44.426178"
     height="12.67618"
     x="26.516129"
     y="95.669113"
     ry="1.298848" /><rect
     style="fill:none;fill-opacity:1;stroke:#ff0000;stroke-width:0.0238204;stroke-linejoin:round;stroke-miterlimit:1;stroke-dasharray:none;stroke-opacity:1"
     id="rect2562-6-4"
     width="44.426178"
     height="12.67618"
     x="132.09189"
     y="94.43119"
     ry="1.298848" /><circle
     style="fill:none;stroke:#ff0000;stroke-width:0.0857002;stroke-miterlimit:1;stroke-opacity:1"
     id="path526-5"
     cx="69.38102"
     cy="121.67605"
     r="2.3320498" /><circle
     style="fill:none;stroke:#ff0000;stroke-width:0.0857002;stroke-miterlimit:1;stroke-opacity:1"
     id="path526-5-6"
     cx="28.204416"
     cy="121.67605"
     r="2.3320498" /><circle
     style="fill:none;stroke:#ff0000;stroke-width:0.0857002;stroke-miterlimit:1;stroke-opacity:1"
     id="path526-5-64"
     cx="174.95679"
     cy="120.43813"
     r="2.3320498" /><circle
     style="fill:none;stroke:#ff0000;stroke-width:0.0857002;stroke-miterlimit:1;stroke-opacity:1"
     id="path526-5-6-6"
     cx="133.78018"
     cy="120.43813"
     r="2.3320498" /><circle
     style="fill:none;stroke:#ff0000;stroke-width:0.0857002;stroke-miterlimit:1;stroke-opacity:1"
     id="path526-5-60"
     cx="69.38102"
     cy="70.876045"
     r="2.3320498" /><circle
     style="fill:none;stroke:#ff0000;stroke-width:0.0857002;stroke-miterlimit:1;stroke-opacity:1"
     id="path526-5-6-1"
     cx="28.204416"
     cy="70.876038"
     r="2.3320498" /><circle
     style="fill:none;stroke:#ff0000;stroke-width:0.0857002;stroke-miterlimit:1;stroke-opacity:1"
     id="path526-5-60-7"
     cx="174.88913"
     cy="69.565079"
     r="2.3320498" /><circle
     style="fill:none;stroke:#ff0000;stroke-width:0.0857002;stroke-miterlimit:1;stroke-opacity:1"
     id="path526-5-6-1-5"
     cx="133.71252"
     cy="69.565071"
     r="2.3320498" /></svg>
